<svg width="359.343" height="30.524" x="-298.727" y="-183.163" viewBox="-7904 0 9508 808" xml:space="preserve" style="shape-rendering:geometricPrecision;text-rendering:geometricPrecision;image-rendering:optimizeQuality"><g id="Ebene 1"><g><rect id="46471616" width="1380" height="800" x="-7900" y="4" style="fill:none;stroke:#1f1a17;stroke-width:8"/><text x="-7650" y="556" style="fill:#1f1a17;font-weight:400;font-size:423;font-family:Helvetica,Arial,sans-serif">Java</text></g><g><path id="46471528" d="M-6520 404l1140 0m-570 0" style="fill:none;stroke:#1f1a17;stroke-width:8"/><path id="46471528" d="M-5549 311l169 93 -169 93 0 -186 169 93z" style="fill:#1f1a17"/></g><text x="-6284" y="304" style="fill:#1f1a17;font-weight:400;font-size:284;font-family:Helvetica,Arial,sans-serif">SAX</text><g><rect id="46471880" width="1380" height="800" x="-5380" y="4" style="fill:none;stroke:#1f1a17;stroke-width:8"/><text x="-5117" y="556" style="fill:#1f1a17;font-weight:400;font-size:423;font-family:Helvetica,Arial,sans-serif">XML</text></g><g><path id="46472144" d="M-4000 404l1200 0m-600 0" style="fill:none;stroke:#1f1a17;stroke-width:8"/><path id="46472144" d="M-2969 311l169 93 -169 93 0 -186 169 93z" style="fill:#1f1a17"/></g><text x="-3745" y="304" style="fill:#1f1a17;font-weight:400;font-size:284;font-family:Helvetica,Arial,sans-serif">XSLT</text><text x="-3755" y="704" style="fill:#1f1a17;font-weight:400;font-size:284;font-family:Helvetica,Arial,sans-serif">JAXP</text><g><path id="46471088" d="M-900 404l0 0 0 0 0 0m0 0m0 0m0 0" style="fill:none;stroke:#1f1a17;stroke-width:8"/><rect id="46471176" width="1900" height="800" x="-2800" y="4" style="fill:none;stroke:#1f1a17;stroke-width:8"/><text x="-2605" y="556" style="fill:#1f1a17;font-weight:400;font-size:423;font-family:Helvetica,Arial,sans-serif">XSL-FO</text></g><g><path id="46470736" d="M-900 404l1100 0m-550 0" style="fill:none;stroke:#1f1a17;stroke-width:8"/><path id="46470736" d="M31 311l169 93 -169 93 0 -186 169 93z" style="fill:#1f1a17"/></g><text x="-692" y="304" style="fill:#1f1a17;font-weight:400;font-size:284;font-family:Helvetica,Arial,sans-serif">FOP</text><g><text x="486" y="556" style="fill:#1f1a17;font-weight:400;font-size:423;font-family:Helvetica,Arial,sans-serif">PDF</text><rect id="46470912" width="1400" height="800" x="200" y="4" style="fill:none;stroke:#1f1a17;stroke-width:8"/></g></g></svg>