<svg width="261.076" height="30.524" x="-298.727" y="-292.769" viewBox="-7904 0 6908 808" xml:space="preserve" style="shape-rendering:geometricPrecision;text-rendering:geometricPrecision;image-rendering:optimizeQuality"><g id="Ebene 1"><g><rect id="46469856" width="1380" height="800" x="-7900" y="4" style="fill:none;stroke:#1f1a17;stroke-width:8"/><text x="-7638" y="556" style="fill:#1f1a17;font-weight:400;font-size:423;font-family:Helvetica,Arial,sans-serif">XML</text></g><g><path id="46469416" d="M-6520 404l1120 0m-560 0" style="fill:none;stroke:#1f1a17;stroke-width:8"/><path id="46469416" d="M-5569 311l169 93 -169 93 0 -186 169 93z" style="fill:#1f1a17"/></g><text x="-6345" y="304" style="fill:#1f1a17;font-weight:400;font-size:284;font-family:Helvetica,Arial,sans-serif">XSLT</text><text x="-6355" y="704" style="fill:#1f1a17;font-weight:400;font-size:284;font-family:Helvetica,Arial,sans-serif">JAXP</text><g><path id="46469504" d="M-3500 404l0 0 0 0 0 0m0 0m0 0m0 0" style="fill:none;stroke:#1f1a17;stroke-width:8"/><rect id="46469592" width="1900" height="800" x="-5400" y="4" style="fill:none;stroke:#1f1a17;stroke-width:8"/><text x="-5205" y="556" style="fill:#1f1a17;font-weight:400;font-size:423;font-family:Helvetica,Arial,sans-serif">XSL-FO</text></g><g><path id="46470648" d="M-3500 404l1100 0m-550 0" style="fill:none;stroke:#1f1a17;stroke-width:8"/><path id="46470648" d="M-2569 311l169 93 -169 93 0 -186 169 93z" style="fill:#1f1a17"/></g><text x="-3292" y="304" style="fill:#1f1a17;font-weight:400;font-size:284;font-family:Helvetica,Arial,sans-serif">FOP</text><g><text x="-2114" y="556" style="fill:#1f1a17;font-weight:400;font-size:423;font-family:Helvetica,Arial,sans-serif">PDF</text><rect id="46468800" width="1400" height="800" x="-2400" y="4" style="fill:none;stroke:#1f1a17;stroke-width:8"/></g></g></svg>