<svg xmlns="http://www.w3.org/2000/svg" xmlns:xlink="http://www.w3.org/1999/xlink" width="1404" height="319pt" viewBox="0 0 1053 319"><g id="graph1" class="graph" transform="scale(0.5 0.5) rotate(0) translate(4 634)"><title>batiks-deps</title><polygon fill="#fff" stroke="#fff" points="-4 5 -4 -634 2103.12 -634 2103.12 5 -4 5"/><g id="node1" class="node"><title>batik-anim</title><ellipse cx="1391" cy="-315" fill="none" stroke="#000" rx="63.139" ry="18.385"/><text x="1391" y="-311.4" font-family="Times Roman,serif" font-size="14" text-anchor="middle">batik-anim</text></g><g id="node3" class="node"><title>batik-awt-util</title><ellipse cx="384" cy="-93" fill="none" stroke="#000" rx="77.989" ry="18.385"/><text x="384" y="-89.4" font-family="Times Roman,serif" font-size="14" text-anchor="middle">batik-awt-util</text></g><g id="edge2" class="edge"><title>batik-anim-&gt;batik-awt-util</title><path fill="none" stroke="#000" d="M1332.11,-308.23C1295.33,-304.196 1246.95,-299.246 1204,-296 1123.57,-289.922 544.317,-307.316 479,-260 435.819,-228.72 464.412,-193.12 436,-148 429.339,-137.422 420.447,-127.11 411.903,-118.328"/><polygon fill="#000" stroke="#000" points="414.114 -115.591 404.549 -111.036 409.185 -120.562 414.114 -115.591"/></g><g id="node5" class="node"><title>batik-css</title><ellipse cx="1323" cy="-93" fill="none" stroke="#000" rx="53.948" ry="18.385"/><text x="1323" y="-89.4" font-family="Times Roman,serif" font-size="14" text-anchor="middle">batik-css</text></g><g id="edge4" class="edge"><title>batik-anim-&gt;batik-css</title><path fill="none" stroke="#000" d="M1385.32,-296.454C1373.42,-257.604 1345.81,-167.463 1331.68,-121.322"/><polygon fill="#000" stroke="#000" points="1334.99 -120.186 1328.71 -111.649 1328.29 -122.236 1334.99 -120.186"/></g><g id="node7" class="node"><title>batik-dom</title><ellipse cx="1526" cy="-167" fill="none" stroke="#000" rx="60.811" ry="18.385"/><text x="1526" y="-163.4" font-family="Times Roman,serif" font-size="14" text-anchor="middle">batik-dom</text></g><g id="edge6" class="edge"><title>batik-anim-&gt;batik-dom</title><path fill="none" stroke="#000" d="M1406.76,-297.035C1423.35,-278.202 1450.28,-247.818 1474,-222 1482.89,-212.323 1492.77,-201.813 1501.51,-192.599"/><polygon fill="#000" stroke="#000" points="1504.18 -194.868 1508.53 -185.21 1499.11 -190.045 1504.18 -194.868"/></g><g id="node9" class="node"><title>batik-ext</title><ellipse cx="1868" cy="-19" fill="none" stroke="#000" rx="55.861" ry="18.385"/><text x="1868" y="-15.4" font-family="Times Roman,serif" font-size="14" text-anchor="middle">batik-ext</text></g><g id="edge8" class="edge"><title>batik-anim-&gt;batik-ext</title><path fill="none" stroke="#000" d="M1418.01,-298.238C1499.36,-247.758 1741.99,-97.1919 1833,-40.7179"/><polygon fill="#000" stroke="#000" points="1834.93 -43.643 1841.58 -35.396 1831.24 -37.695 1834.93 -43.643"/></g><g id="node11" class="node"><title>batik-parser</title><ellipse cx="914" cy="-167" fill="none" stroke="#000" rx="70.209" ry="18.385"/><text x="914" y="-163.4" font-family="Times Roman,serif" font-size="14" text-anchor="middle">batik-parser</text></g><g id="edge10" class="edge"><title>batik-anim-&gt;batik-parser</title><path fill="none" stroke="#000" d="M1335.7,-305.845C1284.15,-296.628 1205.45,-280.805 1139,-260 1074.04,-239.662 1001.77,-208.108 957.091,-187.499"/><polygon fill="#000" stroke="#000" points="958.533 -184.31 947.989 -183.275 955.586 -190.659 958.533 -184.31"/></g><g id="node13" class="node"><title>batik-svg-dom</title><ellipse cx="1228" cy="-241" fill="none" stroke="#000" rx="80.109" ry="18.385"/><text x="1228" y="-237.4" font-family="Times Roman,serif" font-size="14" text-anchor="middle">batik-svg-dom</text></g><g id="edge12" class="edge"><title>batik-anim-&gt;batik-svg-dom</title><path fill="none" stroke="#000" d="M1356.43,-299.307C1332.38,-288.386 1300.05,-273.71 1273.85,-261.814"/><polygon fill="#000" stroke="#000" points="1275.05 -258.517 1264.5 -257.57 1272.16 -264.89 1275.05 -258.517"/></g><g id="node15" class="node"><title>batik-util</title><ellipse cx="1031" cy="-19" fill="none" stroke="#000" rx="55.861" ry="18.385"/><text x="1031" y="-15.4" font-family="Times Roman,serif" font-size="14" text-anchor="middle">batik-util</text></g><g id="edge14" class="edge"><title>batik-anim-&gt;batik-util</title><path fill="none" stroke="#000" d="M1397.64,-296.508C1412.31,-252.012 1441.95,-137.93 1386,-74 1367.13,-52.4407 1192.46,-33.4952 1095.36,-24.5184"/><polygon fill="#000" stroke="#000" points="1095.63 -21.029 1085.36 -23.603 1095 -28 1095.63 -21.029"/></g><g id="edge16" class="edge"><title>batik-awt-util-&gt;batik-util</title><path fill="none" stroke="#000" d="M454.472,-84.9398C581.291,-70.435 846.038,-40.1548 967.554,-26.2565"/><polygon fill="#000" stroke="#000" points="968.27 -29.698 977.807 -25.084 967.474 -22.743 968.27 -29.698"/></g><g id="node18" class="node"><title>xmlgraphics-commons</title><ellipse cx="384" cy="-19" fill="none" stroke="#000" rx="118.794" ry="18.385"/><text x="384" y="-15.4" font-family="Times Roman,serif" font-size="14" text-anchor="middle">xmlgraphics-commons</text></g><g id="edge18" class="edge"><title>batik-awt-util-&gt;xmlgraphics-commons</title><path fill="none" stroke="#000" d="M384,-74.3267C384,-66.2639 384,-56.6477 384,-47.7115"/><polygon fill="#000" stroke="#000" points="387.5 -47.667 384 -37.667 380.5 -47.667 387.5 -47.667"/></g><g id="edge54" class="edge"><title>batik-css-&gt;batik-ext</title><path fill="none" stroke="#000" d="M1373.3,-86.1709C1473.24,-72.6008 1696.57,-42.2772 1805.64,-27.4666"/><polygon fill="#000" stroke="#000" points="1806.4 -30.897 1815.84 -26.083 1805.46 -23.96 1806.4 -30.897"/></g><g id="edge56" class="edge"><title>batik-css-&gt;batik-util</title><path fill="none" stroke="#000" d="M1279.28,-81.9215C1227.5,-68.7991 1141.23,-46.9351 1085.24,-32.7452"/><polygon fill="#000" stroke="#000" points="1086.05 -29.34 1075.49 -30.276 1084.33 -36.125 1086.05 -29.34"/></g><g id="edge58" class="edge"><title>batik-css-&gt;xmlgraphics-commons</title><path fill="none" stroke="#000" d="M1270.49,-88.4826C1224.69,-84.567 1156.46,-78.7927 1097,-74 887.173,-57.0871 642.518,-38.4507 501.215,-27.7932"/><polygon fill="#000" stroke="#000" points="501.457 -24.302 491.222 -27.04 500.931 -31.282 501.457 -24.302"/></g><g id="edge60" class="edge"><title>batik-dom-&gt;batik-css</title><path fill="none" stroke="#000" d="M1486.86,-152.732C1453.48,-140.562 1405.4,-123.036 1369.95,-110.114"/><polygon fill="#000" stroke="#000" points="1370.9 -106.736 1360.31 -106.6 1368.5 -113.313 1370.9 -106.736"/></g><g id="edge62" class="edge"><title>batik-dom-&gt;batik-ext</title><path fill="none" stroke="#000" d="M1561.31,-151.719C1624.39,-124.421 1756.23,-67.37 1824.67,-37.75"/><polygon fill="#000" stroke="#000" points="1826.11 -40.942 1833.9 -33.758 1823.33 -34.518 1826.11 -40.942"/></g><g id="edge64" class="edge"><title>batik-dom-&gt;batik-util</title><path fill="none" stroke="#000" d="M1513.98,-148.788C1498.52,-127.016 1469.51,-91.3488 1435,-74 1377.12,-44.9069 1195.51,-29.3009 1096.66,-22.7676"/><polygon fill="#000" stroke="#000" points="1096.7 -19.262 1086.49 -22.108 1096.24 -26.248 1096.7 -19.262"/></g><g id="node35" class="node"><title>batik-xml</title><ellipse cx="1031" cy="-93" fill="none" stroke="#000" rx="56.778" ry="18.385"/><text x="1031" y="-89.4" font-family="Times Roman,serif" font-size="14" text-anchor="middle">batik-xml</text></g><g id="edge66" class="edge"><title>batik-dom-&gt;batik-xml</title><path fill="none" stroke="#000" d="M1471.14,-158.798C1378.27,-144.914 1190.7,-116.874 1093.13,-102.288"/><polygon fill="#000" stroke="#000" points="1093.53 -98.808 1083.12 -100.791 1092.49 -105.732 1093.53 -98.808"/></g><g id="edge96" class="edge"><title>batik-parser-&gt;batik-awt-util</title><path fill="none" stroke="#000" d="M851.905,-158.33C754.853,-144.779 567.399,-118.607 461.592,-103.834"/><polygon fill="#000" stroke="#000" points="462.001 -100.357 451.613 -102.44 461.033 -107.29 462.001 -100.357"/></g><g id="edge98" class="edge"><title>batik-parser-&gt;batik-util</title><path fill="none" stroke="#000" d="M921.748,-148.271C930.462,-128.539 945.921,-97.1714 965,-74 974.689,-62.2327 987.16,-51.0955 998.648,-41.9607"/><polygon fill="#000" stroke="#000" points="1001.01 -44.562 1006.79 -35.683 996.73 -39.02 1001.01 -44.562"/></g><g id="edge100" class="edge"><title>batik-parser-&gt;batik-xml</title><path fill="none" stroke="#000" d="M941.136,-149.837C957.462,-139.511 978.415,-126.259 995.981,-115.149"/><polygon fill="#000" stroke="#000" points="998.235 -117.864 1004.82 -109.561 994.493 -111.948 998.235 -117.864"/></g><g id="edge142" class="edge"><title>batik-svg-dom-&gt;batik-awt-util</title><path fill="none" stroke="#000" d="M1194.36,-224.11C1149.62,-202.489 1067.49,-165.712 993,-148 896.112,-124.961 614.124,-106.15 470.397,-97.7445"/><polygon fill="#000" stroke="#000" points="470.478 -94.243 460.292 -97.157 470.072 -101.232 470.478 -94.243"/></g><g id="edge144" class="edge"><title>batik-svg-dom-&gt;batik-css</title><path fill="none" stroke="#000" d="M1239.84,-222.555C1256.43,-196.713 1286.69,-149.568 1305.77,-119.838"/><polygon fill="#000" stroke="#000" points="1308.85 -121.519 1311.31 -111.213 1302.96 -117.737 1308.85 -121.519"/></g><g id="edge146" class="edge"><title>batik-svg-dom-&gt;batik-dom</title><path fill="none" stroke="#000" d="M1282.66,-227.427C1335.38,-214.335 1414.88,-194.594 1468.53,-181.272"/><polygon fill="#000" stroke="#000" points="1469.7 -184.586 1478.56 -178.779 1468.02 -177.792 1469.7 -184.586"/></g><g id="edge148" class="edge"><title>batik-svg-dom-&gt;batik-ext</title><path fill="none" stroke="#000" d="M1264.8,-224.473C1337.6,-192.241 1505.61,-120.115 1652,-74 1705.42,-57.1733 1767.47,-41.7938 1811.33,-31.603"/><polygon fill="#000" stroke="#000" points="1812.27 -34.977 1821.23 -29.318 1810.7 -28.156 1812.27 -34.977"/></g><g id="edge150" class="edge"><title>batik-svg-dom-&gt;batik-parser</title><path fill="none" stroke="#000" d="M1171.86,-227.77C1116.86,-214.809 1033.23,-195.099 976.227,-181.665"/><polygon fill="#000" stroke="#000" points="976.796 -178.203 966.26 -179.316 975.19 -185.017 976.796 -178.203"/></g><g id="edge152" class="edge"><title>batik-svg-dom-&gt;batik-util</title><path fill="none" stroke="#000" d="M1215.57,-222.686C1193.54,-190.825 1145.38,-123.836 1097,-74 1086.21,-62.8913 1073.32,-51.7484 1061.81,-42.4255"/><polygon fill="#000" stroke="#000" points="1063.72 -39.474 1053.72 -35.985 1059.36 -44.951 1063.72 -39.474"/></g><g id="node19" class="node"><title>batik-bridge</title><ellipse cx="1034" cy="-463" fill="none" stroke="#000" rx="70.004" ry="18.385"/><text x="1034" y="-459.4" font-family="Times Roman,serif" font-size="14" text-anchor="middle">batik-bridge</text></g><g id="edge20" class="edge"><title>batik-bridge-&gt;batik-anim</title><path fill="none" stroke="#000" d="M1058.92,-445.522C1095.31,-420.101 1159.99,-375.355 1172,-370 1221.09,-348.103 1280.43,-333.884 1324.95,-325.4"/><polygon fill="#000" stroke="#000" points="1325.59 -328.84 1334.79 -323.572 1324.32 -321.958 1325.59 -328.84"/></g><g id="edge22" class="edge"><title>batik-bridge-&gt;batik-awt-util</title><path fill="none" stroke="#000" d="M995.564,-447.408C969.96,-436.796 935.691,-422.158 906,-408 809.459,-361.964 794.684,-329.166 693,-296 588.785,-262.008 534.713,-328.333 449,-260 406.267,-225.932 391.574,-159.988 386.561,-121.953"/><polygon fill="#000" stroke="#000" points="389.983 -121.087 385.342 -111.563 383.031 -121.903 389.983 -121.087"/></g><g id="edge24" class="edge"><title>batik-bridge-&gt;batik-css</title><path fill="none" stroke="#000" d="M1034.54,-444.41C1036.21,-412.128 1043.08,-344.515 1071,-296 1121.31,-208.597 1224.97,-143.957 1282.42,-113.131"/><polygon fill="#000" stroke="#000" points="1284.36 -116.064 1291.57 -108.299 1281.09 -109.875 1284.36 -116.064"/></g><g id="edge26" class="edge"><title>batik-bridge-&gt;batik-dom</title><path fill="none" stroke="#000" d="M1085.34,-450.284C1193.01,-423.232 1434.82,-360.305 1463,-334 1483.72,-314.659 1506.99,-237.697 1518.59,-195.331"/><polygon fill="#000" stroke="#000" points="1521.99 -196.175 1521.22 -185.608 1515.23 -194.351 1521.99 -196.175"/></g><g id="edge28" class="edge"><title>batik-bridge-&gt;batik-ext</title><path fill="none" stroke="#000" d="M1103,-459.752C1223.16,-453.404 1465.59,-437.343 1545,-408 1717.14,-344.39 1823.53,-125.251 1856.77,-47.0249"/><polygon fill="#000" stroke="#000" points="1860 -48.361 1860.63 -37.784 1853.54 -45.661 1860 -48.361"/></g><g id="edge34" class="edge"><title>batik-bridge-&gt;batik-parser</title><path fill="none" stroke="#000" d="M1012.94,-445.272C1002.29,-435.303 989.978,-422.057 982,-408 942.187,-337.846 924.364,-242.783 917.57,-195.772"/><polygon fill="#000" stroke="#000" points="921.013 -195.123 916.178 -185.696 914.079 -196.081 921.013 -195.123"/></g><g id="edge38" class="edge"><title>batik-bridge-&gt;batik-svg-dom</title><path fill="none" stroke="#000" d="M1039.5,-444.428C1051.83,-403.272 1081.4,-307.147 1092,-296 1109.74,-277.348 1134.67,-264.851 1158.35,-256.556"/><polygon fill="#000" stroke="#000" points="1159.64 -259.815 1168.05 -253.361 1157.45 -253.167 1159.64 -259.815"/></g><g id="edge40" class="edge"><title>batik-bridge-&gt;batik-util</title><path fill="none" stroke="#000" d="M1004.95,-445.94C989.979,-436.161 972.151,-422.882 959,-408 884.164,-323.313 863.474,-295.369 835,-186 815.1,-109.564 916.026,-59.0889 980.479,-35.1481"/><polygon fill="#000" stroke="#000" points="981.882 -38.363 990.096 -31.671 979.502 -31.78 981.882 -38.363"/></g><g id="edge44" class="edge"><title>batik-bridge-&gt;xmlgraphics-commons</title><path fill="none" stroke="#000" d="M983.792,-450.011C832.853,-410.75 390.002,-293.936 332,-260 280.078,-229.621 240.944,-206.242 256,-148 265.411,-111.597 271.192,-101.344 297,-74 308.782,-61.5164 323.972,-50.6571 338.354,-41.9609"/><polygon fill="#000" stroke="#000" points="340.285 -44.887 347.166 -36.831 336.763 -38.837 340.285 -44.887"/></g><g id="node26" class="node"><title>batik-gvt</title><ellipse cx="608" cy="-389" fill="none" stroke="#000" rx="55.861" ry="18.385"/><text x="608" y="-385.4" font-family="Times Roman,serif" font-size="14" text-anchor="middle">batik-gvt</text></g><g id="edge30" class="edge"><title>batik-bridge-&gt;batik-gvt</title><path fill="none" stroke="#000" d="M970.268,-455.338C898.731,-446.232 779.399,-429.524 678,-408 672.239,-406.777 666.247,-405.367 660.301,-403.879"/><polygon fill="#000" stroke="#000" points="660.943 -400.43 650.385 -401.32 659.193 -407.208 660.943 -400.43"/></g><g id="node28" class="node"><title>batik-js</title><ellipse cx="1148" cy="-315" fill="none" stroke="#000" rx="46.877" ry="18.385"/><text x="1148" y="-311.4" font-family="Times Roman,serif" font-size="14" text-anchor="middle">batik-js</text></g><g id="edge32" class="edge"><title>batik-bridge-&gt;batik-js</title><path fill="none" stroke="#000" d="M1052.63,-444.874C1062.93,-434.476 1075.68,-420.95 1086,-408 1102.94,-386.74 1119.9,-360.901 1131.79,-341.86"/><polygon fill="#000" stroke="#000" points="1134.92 -343.455 1137.2 -333.108 1128.97 -339.775 1134.92 -343.455"/></g><g id="node31" class="node"><title>batik-script</title><ellipse cx="1470" cy="-389" fill="none" stroke="#000" rx="65.968" ry="18.385"/><text x="1470" y="-385.4" font-family="Times Roman,serif" font-size="14" text-anchor="middle">batik-script</text></g><g id="edge36" class="edge"><title>batik-bridge-&gt;batik-script</title><path fill="none" stroke="#000" d="M1093.25,-452.943C1174.14,-439.215 1318.69,-414.681 1403.29,-400.323"/><polygon fill="#000" stroke="#000" points="1404.02 -403.748 1413.3 -398.624 1402.85 -396.846 1404.02 -403.748"/></g><g id="edge42" class="edge"><title>batik-bridge-&gt;batik-xml</title><path fill="none" stroke="#000" d="M1028.03,-444.385C1024.96,-433.835 1021.54,-420.319 1020,-408 1007.73,-310.063 1020.66,-284.558 1026,-186 1027.17,-164.405 1028.48,-139.99 1029.47,-121.595"/><polygon fill="#000" stroke="#000" points="1032.97 -121.701 1030.01 -111.528 1025.98 -121.326 1032.97 -121.701"/></g><g id="edge92" class="edge"><title>batik-gvt-&gt;batik-awt-util</title><path fill="none" stroke="#000" d="M585.93,-371.96C558.322,-351.369 508.952,-316.892 462,-296 407.226,-271.627 368.298,-307.715 332,-260 301.862,-220.382 313.597,-194.251 332,-148 336.509,-136.668 344.583,-126.323 353.045,-117.74"/><polygon fill="#000" stroke="#000" points="355.653 -120.09 360.502 -110.67 350.837 -115.011 355.653 -120.09"/></g><g id="edge94" class="edge"><title>batik-gvt-&gt;batik-util</title><path fill="none" stroke="#000" d="M627.412,-371.285C651.7,-348.053 692.9,-304.941 716,-260 755.029,-184.068 702.158,-132.86 764,-74 792.55,-46.827 896.972,-31.7308 966.453,-24.499"/><polygon fill="#000" stroke="#000" points="966.841 -27.978 976.438 -23.489 966.136 -21.013 966.841 -27.978"/></g><g id="edge108" class="edge"><title>batik-script-&gt;batik-anim</title><path fill="none" stroke="#000" d="M1450.88,-371.087C1440.78,-361.634 1428.25,-349.891 1417.26,-339.598"/><polygon fill="#000" stroke="#000" points="1419.64 -337.03 1409.95 -332.748 1414.85 -342.139 1419.64 -337.03"/></g><g id="edge112" class="edge"><title>batik-script-&gt;batik-util</title><path fill="none" stroke="#000" d="M1520.35,-376.91C1581.91,-358.775 1678,-318.116 1678,-241 1678,-241 1678,-241 1678,-167 1678,-48.7038 1261.79,-24.9605 1097.02,-20.1958"/><polygon fill="#000" stroke="#000" points="1097.1 -16.697 1087 -19.921 1096.9 -23.694 1097.1 -16.697"/></g><g id="edge110" class="edge"><title>batik-script-&gt;batik-js</title><path fill="none" stroke="#000" d="M1418.62,-377.193C1358.36,-363.345 1259.09,-340.531 1199,-326.72"/><polygon fill="#000" stroke="#000" points="1199.51 -323.246 1188.98 -324.417 1197.94 -330.068 1199.51 -323.246"/></g><g id="edge200" class="edge"><title>batik-xml-&gt;batik-util</title><path fill="none" stroke="#000" d="M1031,-74.3267C1031,-66.2639 1031,-56.6477 1031,-47.7115"/><polygon fill="#000" stroke="#000" points="1034.5 -47.667 1031 -37.667 1027.5 -47.667 1034.5 -47.667"/></g><g id="node37" class="node"><title>batik-codec</title><ellipse cx="272" cy="-611" fill="none" stroke="#000" rx="67.175" ry="18.385"/><text x="272" y="-607.4" font-family="Times Roman,serif" font-size="14" text-anchor="middle">batik-codec</text></g><g id="edge46" class="edge"><title>batik-codec-&gt;batik-awt-util</title><path fill="none" stroke="#000" d="M217.828,-599.982C191.465,-591.973 161.363,-578.457 142,-556 114.125,-523.671 118,-505.687 118,-463 118,-463 118,-463 118,-241 118,-198.313 111.38,-177.743 142,-148 164.835,-125.819 241.943,-110.92 303.059,-102.286"/><polygon fill="#000" stroke="#000" points="303.676 -105.734 313.105 -100.902 302.721 -98.799 303.676 -105.734"/></g><g id="edge52" class="edge"><title>batik-codec-&gt;batik-util</title><path fill="none" stroke="#000" d="M212.732,-602.162C180.868,-594.67 142.915,-580.956 117,-556 84.9579,-525.143 80,-507.484 80,-463 80,-463 80,-463 80,-167 80,-139.831 -44.7173,-154.533 297,-74 422.918,-44.3247 808.801,-27.1858 964.665,-21.316"/><polygon fill="#000" stroke="#000" points="965.176 -24.799 975.039 -20.929 964.915 -17.804 965.176 -24.799"/></g><g id="edge48" class="edge"><title>batik-codec-&gt;batik-bridge</title><path fill="none" stroke="#000" d="M325.547,-599.817C341.115,-596.895 358.185,-594.005 374,-592 490.672,-577.207 791.163,-595.322 902,-556 943.243,-541.368 983.27,-510 1008.23,-487.747"/><polygon fill="#000" stroke="#000" points="1010.74 -490.193 1015.78 -480.875 1006.03 -485.014 1010.74 -490.193"/></g><g id="node41" class="node"><title>batik-transcoder</title><ellipse cx="470" cy="-537" fill="none" stroke="#000" rx="91.924" ry="18.385"/><text x="470" y="-533.4" font-family="Times Roman,serif" font-size="14" text-anchor="middle">batik-transcoder</text></g><g id="edge50" class="edge"><title>batik-codec-&gt;batik-transcoder</title><path fill="none" stroke="#000" d="M312.068,-596.025C342.203,-584.763 383.791,-569.22 416.726,-556.91"/><polygon fill="#000" stroke="#000" points="418.065 -560.146 426.207 -553.367 415.615 -553.589 418.065 -560.146"/></g><g id="edge182" class="edge"><title>batik-transcoder-&gt;batik-anim</title><path fill="none" stroke="#000" d="M555.608,-530.181C727.601,-516.413 1099.9,-486.241 1113,-482 1212.25,-449.865 1313.45,-376.768 1361.8,-338.834"/><polygon fill="#000" stroke="#000" points="1363.98 -341.571 1369.65 -332.619 1359.63 -336.083 1363.98 -341.571"/></g><g id="edge184" class="edge"><title>batik-transcoder-&gt;batik-awt-util</title><path fill="none" stroke="#000" d="M389.056,-528.008C307.616,-513.938 194,-478.304 194,-389 194,-389 194,-389 194,-241 194,-173.411 269.756,-132.169 325.597,-110.949"/><polygon fill="#000" stroke="#000" points="326.892 -114.202 335.07 -107.466 324.477 -107.632 326.892 -114.202"/></g><g id="edge188" class="edge"><title>batik-transcoder-&gt;batik-dom</title><path fill="none" stroke="#000" d="M555.807,-530.188C601.575,-526.559 658.852,-522.026 710,-518 914.437,-501.908 966.837,-509.898 1170,-482 1191.04,-479.111 1531.52,-424.405 1545,-408 1571.09,-376.256 1546.15,-252.074 1532.98,-195.436"/><polygon fill="#000" stroke="#000" points="1536.38 -194.61 1530.68 -185.684 1529.57 -196.221 1536.38 -194.61"/></g><g id="edge194" class="edge"><title>batik-transcoder-&gt;batik-util</title><path fill="none" stroke="#000" d="M470.689,-518.188C471.74,-499.196 474.382,-469.158 481,-444 490.071,-409.515 493.097,-400.236 512,-370 535.205,-332.882 540.778,-320.581 577,-296 616.433,-269.24 645.24,-294.609 678,-260 737.26,-197.394 668.929,-131.674 733,-74 766.492,-43.8518 888.603,-29.4237 965.732,-23.177"/><polygon fill="#000" stroke="#000" points="966.141 -26.656 975.837 -22.384 965.594 -19.677 966.141 -26.656"/></g><g id="edge186" class="edge"><title>batik-transcoder-&gt;batik-bridge</title><path fill="none" stroke="#000" d="M547.239,-526.866C656.399,-512.543 854.371,-486.568 961.112,-472.563"/><polygon fill="#000" stroke="#000" points="961.691 -476.017 971.151 -471.246 960.781 -469.077 961.691 -476.017"/></g><g id="edge190" class="edge"><title>batik-transcoder-&gt;batik-gvt</title><path fill="none" stroke="#000" d="M484.28,-518.568C499.432,-499.355 524.398,-468.665 548,-444 558.043,-433.505 569.695,-422.57 580.044,-413.241"/><polygon fill="#000" stroke="#000" points="582.522 -415.721 587.657 -406.454 577.863 -410.496 582.522 -415.721"/></g><g id="edge196" class="edge"><title>batik-transcoder-&gt;batik-xml</title><path fill="none" stroke="#000" d="M474.222,-518.499C482.536,-485.46 503.723,-415.516 543,-370 602.527,-301.018 644.06,-315.917 716,-260 773.344,-215.428 771.767,-183.731 835,-148 876.556,-124.518 928.815,-110.505 968.92,-102.505"/><polygon fill="#000" stroke="#000" points="969.68 -105.923 978.84 -100.599 968.359 -99.049 969.68 -105.923"/></g><g id="node99" class="node"><title>batik-svggen</title><ellipse cx="562" cy="-167" fill="none" stroke="#000" rx="74.246" ry="18.385"/><text x="562" y="-163.4" font-family="Times Roman,serif" font-size="14" text-anchor="middle">batik-svggen</text></g><g id="edge192" class="edge"><title>batik-transcoder-&gt;batik-svggen</title><path fill="none" stroke="#000" d="M454.005,-518.535C446.341,-508.459 437.978,-495.342 434,-482 419.776,-434.298 426.68,-419.237 434,-370 444.11,-301.996 437.921,-277.13 479,-222 489.093,-208.455 503.574,-197.237 517.623,-188.542"/><polygon fill="#000" stroke="#000" points="519.425 -191.543 526.271 -183.457 515.877 -185.509 519.425 -191.543"/></g><g id="node50" class="node"><title>batik-extension</title><ellipse cx="1281" cy="-537" fill="none" stroke="#000" rx="87.18" ry="18.385"/><text x="1281" y="-533.4" font-family="Times Roman,serif" font-size="14" text-anchor="middle">batik-extension</text></g><g id="edge68" class="edge"><title>batik-extension-&gt;batik-anim</title><path fill="none" stroke="#000" d="M1292.81,-518.452C1299.35,-507.922 1307.44,-494.405 1314,-482 1339.22,-434.293 1364.7,-376.787 1379.11,-343.216"/><polygon fill="#000" stroke="#000" points="1382.5 -344.174 1383.21 -333.603 1376.06 -341.426 1382.5 -344.174"/></g><g id="edge70" class="edge"><title>batik-extension-&gt;batik-awt-util</title><path fill="none" stroke="#000" d="M1195.19,-533.925C1050.54,-527.97 764.615,-512.663 669,-482 596.794,-458.844 325.303,-287.849 310,-260 301.846,-245.161 304.343,-166.575 314,-148 320.654,-135.2 331.763,-124.422 343.192,-115.893"/><polygon fill="#000" stroke="#000" points="345.317 -118.678 351.512 -110.084 341.309 -112.939 345.317 -118.678"/></g><g id="edge74" class="edge"><title>batik-extension-&gt;batik-css</title><path fill="none" stroke="#000" d="M1284.05,-518.256C1291.18,-473.651 1308.92,-357.626 1317,-260 1321,-211.684 1322.33,-155.286 1322.78,-121.946"/><polygon fill="#000" stroke="#000" points="1326.28 -121.607 1322.9 -111.568 1319.28 -121.527 1326.28 -121.607"/></g><g id="edge76" class="edge"><title>batik-extension-&gt;batik-dom</title><path fill="none" stroke="#000" d="M1320.14,-520.324C1400.36,-486.105 1576.1,-410.901 1578,-408 1622.35,-340.388 1572.93,-241.331 1543.98,-194.052"/><polygon fill="#000" stroke="#000" points="1546.78 -191.923 1538.5 -185.312 1540.85 -195.643 1546.78 -191.923"/></g><g id="edge78" class="edge"><title>batik-extension-&gt;batik-ext</title><path fill="none" stroke="#000" d="M1353.48,-526.754C1403.41,-518.271 1470.64,-503.991 1527,-482 1551.93,-472.274 1944,-267.757 1944,-241 1944,-241 1944,-241 1944,-167 1944,-120.144 1913.48,-73.2435 1891.12,-45.1688"/><polygon fill="#000" stroke="#000" points="1893.54 -42.593 1884.49 -37.081 1888.13 -47.033 1893.54 -42.593"/></g><g id="edge82" class="edge"><title>batik-extension-&gt;batik-parser</title><path fill="none" stroke="#000" d="M1200.79,-529.83C1118.18,-521.331 995.884,-505.316 955,-482 880.208,-439.346 859.578,-414.86 830,-334 810.802,-281.517 855.436,-224.08 886.716,-192.099"/><polygon fill="#000" stroke="#000" points="889.318 -194.447 893.942 -184.914 884.383 -189.484 889.318 -194.447"/></g><g id="edge84" class="edge"><title>batik-extension-&gt;batik-svg-dom</title><path fill="none" stroke="#000" d="M1277.68,-518.484C1268.71,-468.337 1243.87,-329.633 1233.1,-269.462"/><polygon fill="#000" stroke="#000" points="1236.52 -268.736 1231.31 -259.509 1229.63 -269.969 1236.52 -268.736"/></g><g id="edge86" class="edge"><title>batik-extension-&gt;batik-util</title><path fill="none" stroke="#000" d="M1345.1,-524.418C1414.62,-507.969 1525.46,-473.238 1599,-408 1690.81,-326.555 1742.85,-259.694 1692,-148 1671.25,-102.414 1653.02,-93.7708 1607,-74 1516.8,-35.2493 1228.56,-23.6096 1097.28,-20.2715"/><polygon fill="#000" stroke="#000" points="1097.04 -16.765 1086.96 -20.018 1096.87 -23.763 1097.04 -16.765"/></g><g id="edge72" class="edge"><title>batik-extension-&gt;batik-bridge</title><path fill="none" stroke="#000" d="M1230.42,-521.846C1189.65,-509.633 1132.37,-492.471 1090.18,-479.831"/><polygon fill="#000" stroke="#000" points="1090.92 -476.401 1080.34 -476.884 1088.92 -483.106 1090.92 -476.401"/></g><g id="edge80" class="edge"><title>batik-extension-&gt;batik-gvt</title><path fill="none" stroke="#000" d="M1195.39,-533.689C1064.06,-527.711 819.5,-512.766 738,-482 697.472,-466.701 658.032,-435.479 633.423,-413.442"/><polygon fill="#000" stroke="#000" points="635.717 -410.798 625.971 -406.642 630.998 -415.968 635.717 -410.798"/></g><g id="node61" class="node"><title>batik-gui-util</title><ellipse cx="1690" cy="-463" fill="none" stroke="#000" rx="74.246" ry="18.385"/><text x="1690" y="-459.4" font-family="Times Roman,serif" font-size="14" text-anchor="middle">batik-gui-util</text></g><g id="edge88" class="edge"><title>batik-gui-util-&gt;batik-util</title><path fill="none" stroke="#000" d="M1734.46,-448.162C1787.18,-427.423 1868,-384.327 1868,-315 1868,-315 1868,-315 1868,-241 1868,-144.715 1815.43,-118.407 1730,-74 1674.71,-45.2613 1260.7,-27.31 1097.17,-21.2746"/><polygon fill="#000" stroke="#000" points="1096.89 -17.762 1086.77 -20.894 1096.63 -24.757 1096.89 -17.762"/></g><g id="edge90" class="edge"><title>batik-gui-util-&gt;batik-xml</title><path fill="none" stroke="#000" d="M1619.93,-456.823C1558.98,-449.848 1469.06,-435.653 1395,-408 1302.81,-373.579 1289.49,-344.732 1204,-296 1175.31,-279.646 1163.13,-282.541 1139,-260 1095.06,-218.962 1060.93,-156.487 1043.59,-120.725"/><polygon fill="#000" stroke="#000" points="1046.61 -118.915 1039.15 -111.386 1040.28 -121.92 1046.61 -118.915"/></g><g id="node69" class="node"><title>batik-rasterizer</title><ellipse cx="470" cy="-611" fill="none" stroke="#000" rx="87.18" ry="18.385"/><text x="470" y="-607.4" font-family="Times Roman,serif" font-size="14" text-anchor="middle">batik-rasterizer</text></g><g id="edge102" class="edge"><title>batik-rasterizer-&gt;batik-parser</title><path fill="none" stroke="#000" d="M509.251,-594.264C528.983,-584.744 552.556,-571.603 571,-556 715.04,-434.15 695.091,-350.749 833,-222 845.965,-209.896 861.817,-198.522 876.05,-189.294"/><polygon fill="#000" stroke="#000" points="878.088 -192.146 884.662 -183.838 874.342 -186.233 878.088 -192.146"/></g><g id="edge106" class="edge"><title>batik-rasterizer-&gt;batik-util</title><path fill="none" stroke="#000" d="M419.334,-595.93C400.076,-587.458 380.116,-574.71 369,-556 360.374,-541.48 363.764,-534.057 369,-518 406.865,-401.874 431.813,-367.281 531,-296 574.147,-264.992 607.497,-297.638 645,-260 706.12,-198.66 637.747,-130.924 703,-74 741.152,-40.7176 880.958,-27.2244 965.239,-22.0263"/><polygon fill="#000" stroke="#000" points="965.456 -25.52 975.231 -21.433 965.041 -18.532 965.456 -25.52"/></g><g id="edge104" class="edge"><title>batik-rasterizer-&gt;batik-transcoder</title><path fill="none" stroke="#000" d="M470,-592.327C470,-584.264 470,-574.648 470,-565.711"/><polygon fill="#000" stroke="#000" points="473.5 -565.667 470 -555.667 466.5 -565.667 473.5 -565.667"/></g><g id="node76" class="node"><title>batik-slideshow</title><ellipse cx="806" cy="-537" fill="none" stroke="#000" rx="87.18" ry="18.385"/><text x="806" y="-533.4" font-family="Times Roman,serif" font-size="14" text-anchor="middle">batik-slideshow</text></g><g id="edge114" class="edge"><title>batik-slideshow-&gt;batik-bridge</title><path fill="none" stroke="#000" d="M853.796,-521.487C890.596,-509.543 941.48,-493.028 979.795,-480.593"/><polygon fill="#000" stroke="#000" points="981.316 -483.779 989.747 -477.363 979.155 -477.121 981.316 -483.779"/></g><g id="edge116" class="edge"><title>batik-slideshow-&gt;batik-gvt</title><path fill="none" stroke="#000" d="M745.121,-523.689C717.431,-515.29 685.647,-502.112 662,-482 641.589,-464.64 627.092,-437.517 618.293,-417.032"/><polygon fill="#000" stroke="#000" points="621.453 -415.514 614.43 -407.581 614.974 -418.162 621.453 -415.514"/></g><g id="node79" class="node"><title>batik-squiggle</title><ellipse cx="1493" cy="-611" fill="none" stroke="#000" rx="79.903" ry="18.385"/><text x="1493" y="-607.4" font-family="Times Roman,serif" font-size="14" text-anchor="middle">batik-squiggle</text></g><g id="edge118" class="edge"><title>batik-squiggle-&gt;batik-anim</title><path fill="none" stroke="#000" d="M1505.82,-592.468C1533.94,-549.327 1594.68,-440.501 1545,-370 1533.67,-353.916 1489.46,-339.125 1451.3,-328.942"/><polygon fill="#000" stroke="#000" points="1451.8 -325.456 1441.24 -326.325 1450.03 -332.231 1451.8 -325.456"/></g><g id="edge120" class="edge"><title>batik-squiggle-&gt;batik-awt-util</title><path fill="none" stroke="#000" d="M1413.31,-608.767C1173.65,-601.817 469.754,-579.621 369,-556 268.43,-532.422 156,-566.297 156,-463 156,-463 156,-463 156,-241 156,-193.426 171.968,-177.865 209,-148 236.633,-125.715 273.381,-112.409 306.067,-104.488"/><polygon fill="#000" stroke="#000" points="307.1 -107.843 316.066 -102.199 305.537 -101.019 307.1 -107.843"/></g><g id="edge124" class="edge"><title>batik-squiggle-&gt;batik-dom</title><path fill="none" stroke="#000" d="M1568.69,-604.807C1662.6,-596.285 1816.73,-579.307 1869,-556 1915.98,-535.05 1936.15,-528.574 1958,-482 2037.79,-311.883 1721.26,-213.84 1585.31,-180.258"/><polygon fill="#000" stroke="#000" points="1585.99 -176.823 1575.45 -177.858 1584.34 -183.624 1585.99 -176.823"/></g><g id="edge126" class="edge"><title>batik-squiggle-&gt;batik-ext</title><path fill="none" stroke="#000" d="M1572.46,-608.457C1722.26,-602.945 2034.8,-587.75 2072,-556 2104.47,-528.289 2096,-505.687 2096,-463 2096,-463 2096,-463 2096,-167 2096,-86.4273 1994.59,-47.4974 1927.03,-30.5031"/><polygon fill="#000" stroke="#000" points="1927.45 -27.005 1916.91 -28.057 1925.81 -33.809 1927.45 -27.005"/></g><g id="edge138" class="edge"><title>batik-squiggle-&gt;batik-util</title><path fill="none" stroke="#000" d="M1570.97,-606.837C1725.96,-596.422 2058,-562.498 2058,-463 2058,-463 2058,-463 2058,-241 2058,-112.143 1942.41,-117.175 1821,-74 1753.69,-50.0619 1274.86,-28.7374 1097.16,-21.5638"/><polygon fill="#000" stroke="#000" points="1097.04 -18.056 1086.91 -21.152 1096.76 -25.05 1097.04 -18.056"/></g><g id="edge122" class="edge"><title>batik-squiggle-&gt;batik-bridge</title><path fill="none" stroke="#000" d="M1416.51,-605.356C1352.86,-598.788 1260.75,-584.89 1185,-556 1140.23,-538.924 1094.08,-508.237 1064.78,-486.801"/><polygon fill="#000" stroke="#000" points="1066.73 -483.89 1056.62 -480.745 1062.56 -489.512 1066.73 -483.89"/></g><g id="edge130" class="edge"><title>batik-squiggle-&gt;batik-gvt</title><path fill="none" stroke="#000" d="M1413.71,-608.36C1227.58,-601.746 773.563,-583.035 710,-556 664.826,-536.786 652.572,-524.498 628,-482 616.631,-462.337 611.705,-436.96 609.581,-417.683"/><polygon fill="#000" stroke="#000" points="613.062 -417.316 608.666 -407.676 606.091 -417.954 613.062 -417.316"/></g><g id="edge132" class="edge"><title>batik-squiggle-&gt;batik-script</title><path fill="none" stroke="#000" d="M1491.08,-592.454C1487.06,-553.686 1477.75,-463.842 1472.96,-417.613"/><polygon fill="#000" stroke="#000" points="1476.44 -417.235 1471.93 -407.649 1469.48 -417.957 1476.44 -417.235"/></g><g id="edge140" class="edge"><title>batik-squiggle-&gt;batik-xml</title><path fill="none" stroke="#000" d="M1416.77,-605.386C1280.26,-593.434 1003.73,-559.925 955,-482 916.852,-421 991.735,-200.102 1020.45,-121.23"/><polygon fill="#000" stroke="#000" points="1023.86 -122.086 1024.02 -111.493 1017.29 -119.675 1023.86 -122.086"/></g><g id="edge136" class="edge"><title>batik-squiggle-&gt;batik-transcoder</title><path fill="none" stroke="#000" d="M1413.3,-609.367C1253.8,-605.405 884.221,-592.738 576,-556 566.184,-554.83 555.901,-553.333 545.762,-551.693"/><polygon fill="#000" stroke="#000" points="546.134 -548.207 535.695 -550.013 544.982 -555.112 546.134 -548.207"/></g><g id="edge128" class="edge"><title>batik-squiggle-&gt;batik-gui-util</title><path fill="none" stroke="#000" d="M1516.76,-593.148C1552.06,-566.63 1618.42,-516.777 1657.97,-487.063"/><polygon fill="#000" stroke="#000" points="1660.57 -489.49 1666.46 -480.685 1656.36 -483.893 1660.57 -489.49"/></g><g id="node89" class="node"><title>batik-swing</title><ellipse cx="1792" cy="-537" fill="none" stroke="#000" rx="68.089" ry="18.385"/><text x="1792" y="-533.4" font-family="Times Roman,serif" font-size="14" text-anchor="middle">batik-swing</text></g><g id="edge134" class="edge"><title>batik-squiggle-&gt;batik-swing</title><path fill="none" stroke="#000" d="M1547.84,-597.427C1599.9,-584.543 1677.97,-565.221 1731.74,-551.913"/><polygon fill="#000" stroke="#000" points="1732.62 -555.301 1741.49 -549.501 1730.94 -548.506 1732.62 -555.301"/></g><g id="edge162" class="edge"><title>batik-swing-&gt;batik-anim</title><path fill="none" stroke="#000" d="M1798.48,-518.5C1804.29,-498.387 1809.82,-466.157 1795,-444 1756.93,-387.063 1560.8,-344.748 1456.47,-325.876"/><polygon fill="#000" stroke="#000" points="1456.82 -322.384 1446.36 -324.069 1455.59 -329.275 1456.82 -322.384"/></g><g id="edge164" class="edge"><title>batik-swing-&gt;batik-awt-util</title><path fill="none" stroke="#000" d="M1724.88,-533.86C1539.47,-525.007 1029.04,-499.363 955,-482 850.452,-457.481 608.777,-335.698 509,-296 467.047,-279.308 445.729,-292.124 414,-260 377.827,-223.376 377.059,-158.936 380.216,-121.721"/><polygon fill="#000" stroke="#000" points="383.721 -121.848 381.235 -111.549 376.756 -121.15 383.721 -121.848"/></g><g id="edge168" class="edge"><title>batik-swing-&gt;batik-css</title><path fill="none" stroke="#000" d="M1808.43,-518.606C1816.31,-508.55 1824.9,-495.429 1829,-482 1833.93,-465.846 1832.52,-460.519 1829,-444 1794.14,-280.246 1742.59,-228.885 1596,-148 1560.27,-128.282 1452.92,-110.65 1383.97,-100.929"/><polygon fill="#000" stroke="#000" points="1384.06 -97.407 1373.67 -99.495 1383.09 -104.341 1384.06 -97.407"/></g><g id="edge170" class="edge"><title>batik-swing-&gt;batik-dom</title><path fill="none" stroke="#000" d="M1802.65,-518.575C1812.29,-499.368 1823.48,-468.682 1813,-444 1761.69,-323.16 1628.98,-229.384 1563.57,-188.859"/><polygon fill="#000" stroke="#000" points="1565.16 -185.729 1554.8 -183.497 1561.51 -191.7 1565.16 -185.729"/></g><g id="edge172" class="edge"><title>batik-swing-&gt;batik-ext</title><path fill="none" stroke="#000" d="M1854.43,-529.657C1888.86,-522.629 1930.15,-508.881 1958,-482 2014.97,-427.02 2020,-394.172 2020,-315 2020,-315 2020,-315 2020,-167 2020,-105.837 1956.04,-61.7491 1911.1,-38.3195"/><polygon fill="#000" stroke="#000" points="1912.62 -35.163 1902.11 -33.772 1909.46 -41.409 1912.62 -35.163"/></g><g id="edge180" class="edge"><title>batik-swing-&gt;batik-util</title><path fill="none" stroke="#000" d="M1813.23,-519.368C1823.93,-509.426 1836.23,-496.175 1844,-482 1876.58,-422.536 1872.26,-401.237 1881,-334 1897.04,-210.581 1892.15,-121.226 1777,-74 1714.96,-48.5562 1267.48,-28.369 1096.85,-21.5173"/><polygon fill="#000" stroke="#000" points="1096.88 -18.016 1086.75 -21.114 1096.6 -25.01 1096.88 -18.016"/></g><g id="edge166" class="edge"><title>batik-swing-&gt;batik-bridge</title><path fill="none" stroke="#000" d="M1727.7,-530.723C1588.36,-517.12 1259.11,-484.977 1109.88,-470.408"/><polygon fill="#000" stroke="#000" points="1110.18 -466.92 1099.88 -469.432 1109.5 -473.887 1110.18 -466.92"/></g><g id="edge176" class="edge"><title>batik-swing-&gt;batik-gvt</title><path fill="none" stroke="#000" d="M1724.68,-533.833C1501.47,-523.271 798.55,-489.499 776,-482 747.109,-472.392 745.361,-459.235 719,-444 696.878,-431.215 671.382,-418.451 650.409,-408.442"/><polygon fill="#000" stroke="#000" points="651.655 -405.16 641.119 -404.047 648.662 -411.488 651.655 -405.16"/></g><g id="edge178" class="edge"><title>batik-swing-&gt;batik-script</title><path fill="none" stroke="#000" d="M1793.82,-518.45C1794.79,-497.362 1792.79,-463.36 1773,-444 1741.45,-413.139 1624.59,-399.209 1545.56,-393.206"/><polygon fill="#000" stroke="#000" points="1545.39 -389.684 1535.16 -392.445 1544.88 -396.666 1545.39 -389.684"/></g><g id="edge174" class="edge"><title>batik-swing-&gt;batik-gui-util</title><path fill="none" stroke="#000" d="M1768.09,-519.65C1754.5,-509.794 1737.3,-497.317 1722.51,-486.583"/><polygon fill="#000" stroke="#000" points="1724.27 -483.537 1714.12 -480.497 1720.16 -489.203 1724.27 -483.537"/></g><g id="edge154" class="edge"><title>batik-svggen-&gt;batik-awt-util</title><path fill="none" stroke="#000" d="M523.815,-151.125C497.015,-139.984 460.972,-125 432.194,-113.036"/><polygon fill="#000" stroke="#000" points="433.314 -109.711 422.737 -109.104 430.627 -116.175 433.314 -109.711"/></g><g id="edge156" class="edge"><title>batik-svggen-&gt;batik-util</title><path fill="none" stroke="#000" d="M573.762,-148.453C588.653,-126.694 616.451,-91.3891 650,-74 703.617,-46.2098 871.412,-30.2463 965.455,-23.2612"/><polygon fill="#000" stroke="#000" points="965.991 -26.732 975.71 -22.513 965.482 -19.75 965.991 -26.732"/></g><g id="node102" class="node"><title>batik-svgpp</title><ellipse cx="68" cy="-611" fill="none" stroke="#000" rx="67.882" ry="18.385"/><text x="68" y="-607.4" font-family="Times Roman,serif" font-size="14" text-anchor="middle">batik-svgpp</text></g><g id="edge160" class="edge"><title>batik-svgpp-&gt;batik-util</title><path fill="none" stroke="#000" d="M62.6128,-592.493C54.9972,-564.652 42,-510.219 42,-463 42,-463 42,-463 42,-167 42,-107.276 84.2963,-97.969 139,-74 176.715,-57.475 765.381,-30.531 965.218,-21.8153"/><polygon fill="#000" stroke="#000" points="965.445 -25.309 975.284 -21.377 965.141 -18.315 965.445 -25.309"/></g><g id="edge158" class="edge"><title>batik-svgpp-&gt;batik-transcoder</title><path fill="none" stroke="#000" d="M124.32,-600.633C194.154,-587.778 313.555,-565.798 392.126,-551.335"/><polygon fill="#000" stroke="#000" points="392.775 -554.774 401.976 -549.522 391.507 -547.89 392.775 -554.774"/></g><g id="node123" class="node"><title>batik-ttf2svg</title><ellipse cx="562" cy="-241" fill="none" stroke="#000" rx="74.246" ry="18.385"/><text x="562" y="-237.4" font-family="Times Roman,serif" font-size="14" text-anchor="middle">batik-ttf2svg</text></g><g id="edge198" class="edge"><title>batik-ttf2svg-&gt;batik-svggen</title><path fill="none" stroke="#000" d="M562,-222.327C562,-214.264 562,-204.648 562,-195.711"/><polygon fill="#000" stroke="#000" points="565.5 -195.667 562 -185.667 558.5 -195.667 565.5 -195.667"/></g></g></svg>